<?xml version="1.0" standalone="no"?>
<!DOCTYPE svg PUBLIC "-//W3C//DTD SVG 20010904//EN"
 "http://www.w3.org/TR/2001/REC-SVG-20010904/DTD/svg10.dtd">
<svg version="1.0" xmlns="http://www.w3.org/2000/svg"
 width="252.000000pt" height="252.000000pt" viewBox="0 0 252.000000 252.000000"
 preserveAspectRatio="xMidYMid meet">
<metadata>
Created by potrace 1.14, written by Peter Selinger 2001-2017
</metadata>
<g transform="translate(0.000000,252.000000) scale(0.100000,-0.100000)"
fill="#000000" stroke="none">
<path d="M107 1753 c-4 -3 -7 -223 -7 -489 0 -430 2 -483 16 -488 30 -11 209
-7 222 6 17 17 17 949 0 966 -13 13 -219 18 -231 5z"/>
<path d="M434 1747 c-2 -7 -3 -56 -2 -108 l3 -94 130 -2 c72 -2 140 -5 153 -8
l22 -5 0 -368 c0 -273 3 -371 12 -380 16 -16 210 -16 226 0 9 9 12 107 12 380
l0 368 23 5 c12 3 81 6 152 8 l130 2 0 105 0 105 -428 3 c-349 2 -428 0 -433
-11z"/>
<path d="M1397 1753 c-4 -3 -7 -223 -7 -489 0 -430 2 -483 16 -488 30 -11 209
-7 222 6 8 8 12 46 12 103 l0 91 62 72 c34 40 64 72 67 72 14 -1 34 -24 154
-182 l128 -168 122 0 c129 0 153 6 145 37 -3 11 -87 131 -188 267 -100 135
-180 252 -177 259 3 7 78 95 167 197 113 129 160 190 158 205 -3 19 -11 20
-128 23 l-125 3 -175 -201 c-105 -121 -181 -199 -190 -198 -13 3 -15 33 -18
187 -1 116 -7 189 -13 198 -8 9 -42 13 -119 13 -58 0 -110 -3 -113 -7z"/>
<path d="M2402 1008 c-8 -8 -12 -47 -12 -109 0 -117 8 -129 81 -129 l49 0 0
125 0 125 -53 0 c-29 0 -58 -5 -65 -12z"/>
</g>
</svg>
